/* XPM */
static char *b300a3db4672407fac0952be6c4d8e60qPuiLJ4Ybwe4ojIt[] = {
/* columns rows colors chars-per-pixel */
"70 70 63 1 ",
"  c #0D361F",
". c #113E1F",
"X c #002622",
"o c #012C22",
"O c #033324",
"+ c #093521",
"@ c #063B25",
"# c #0A3C24",
"$ c #073C28",
"% c #093E28",
"& c #103E21",
"* c #15421E",
"= c #19451D",
"- c #1C4B1D",
"; c #1E521F",
": c #204C1B",
"> c #23551D",
", c #295619",
"< c #255B1E",
"1 c #2A5D1D",
"2 c #315D17",
"3 c #2C641F",
"4 c #2F681F",
"5 c #356517",
"6 c #386717",
"7 c #3B6B16",
"8 c #31661B",
"9 c #336B1E",
"0 c #396D19",
"q c #3F7116",
"w c #36701E",
"e c #3C731A",
"r c #074027",
"t c #0A4226",
"y c #0F4826",
"u c #074128",
"i c #0B4429",
"p c #0E4A2A",
"a c #124422",
"s c #144B24",
"d c #1A4D21",
"f c #104728",
"g c #114D2B",
"h c #175125",
"j c #1C5322",
"k c #1E5A25",
"l c #14532C",
"z c #185529",
"x c #16582E",
"c c #1B5B2B",
"v c #215620",
"b c #235B21",
"n c #285F20",
"m c #205E28",
"M c #1F602B",
"N c #266224",
"B c #2A6421",
"V c #2E6821",
"C c #226229",
"Z c #306920",
"A c #437615",
"S c #457916",
"D c #417719",
/* pixels */
"olxxpy@OOOXtV4tooooOOoXoOOgxxiXootttooooOyguuxxxi@b9*OgxxlOgO#%gyX#93X",
"3VVsipllpOgOisOilltotlllO>4VsuxiXOtigll@O=Nl@@BV4s+OXa4VNilOoo@ippo+iu",
"99hiOOhV3j@gOo;4VdOsBVB+<49dOOpxiXObBVaoXOrtpX#99til@a93stOXpglpiuO@tt",
".t@OoXOd94j+X;49j%@zZVtOqwjtOOo+OoO9ZjtOyppp%pXsstlio ttOOioOmBNa@glpO",
"O@pppOotkwqoo0e;s@O+*#X -attOXOiuyO*aO$zNNk@O%ootplOOppi@oxf#sB93sxBNj",
"jypkNkaut;0Oo-;OilOou$OyiXOOoo%zNNhooosV93aoOit%OpitvNmp%O%x$@sBe1O;99",
"e#iz49Bs OsOo@uttli#NCzlxO@@ttigjw4a@@8wBzi@@lCCs#%bwBa@gp%%outs<-X+b9",
"2 lpdBw,Xo@@OcclO@ttN94ypykMxppl%v9ey@,1a$lxpinZ9#O-vaXtgCmaoplt@$tpi;",
"O+igO&63X%ly@;xtOOOOpb;#o394s@tgiO10s@@OoXOlz$tb<@O@@OtptbZZ#gxfhMcl@@",
"cc#OXXad@xl#@OO flt@ptOOO;3tO@O+OX%icclOooo#vO%tOOotxxp@gobBagiv9Vj@@l",
"BZZsOoXOplt@xcx@txiOlxc@OOoXOycxpX 393tX+ti$OlOlxc#Otxl@oootiiOd4-X@lo",
"onVst@O@u@O44VyoXiiX+VV4tlxOd4Zbyuu33 gxpgxgOxgOb8ZaXOpxxlttlxxiOOOxlX",
"O@o#gxlp@gOV4sO @yu@o 444c@XdZvoOutiOX@lphVV<oo@iB9aXs94bO%tOvVV-XultO",
"l@ kadjO@xg+iOXulxpu#os4SaplgaiOOlllto@i#odZVnttl#Of%a93@ooopt<94j@ull",
"OO;3Bd+Xo@p@OX-BBh@t@oOt9 @lxg##bBBptoOilggj0AigxOo@oOsgggpo@p#vD8aNNV",
"O@0w:oXOgppOXdV9ky@@lppO.o@p%O#n94aglOsBBc%Od9#xtXtpg%@lgBBvOplsj*tw4t",
"li9bst@oaNNjo0w<y@oogBNjXXilgOaABaoxtXbwNy@@Oao@OabBhOo%lj99;t%OOooaao",
"x@dilli%a;ZZ+<ky@OoX#v9Z+avCzOd0hOX$XXad#@glO@OOs49Ns%%titj4e*X+tt$O@i",
"yoO@i@@glOkh@@u@O@t@@ibk+n9b+X+dyiO@%%XoOak$Ottt9wbailNka@@j0aOixNkhiN",
"XO@$OOoOitr@oyp@O@ll@@t@X-b+O$ootlygCcstthsOppiO01+OOaB9BO@od#t@ Nw3yb",
"+ccxuOoO@pt@OpccaOOlgO@i#OXopxyXOppOv49j@@OyccgO>#oX@usNv@xOo#@@ t3;@@",
"99Vsuylcxguyi@v89;oOpOtxxlO#pg@OOOgOX>VsOo-99<ooXfp@@iiuOxlyxcxigxrooX",
"3VyiyvZ9;oOlxx#j99;o a44V+@utpxxh@OoXtpOo*94<ouyiOgtyxxpOlOB94#o=MgrOO",
"OtllN99jo O@BZ8#dD1Oi444+@tu@O*4V<OoOlxx@;qN%Olxxig%XsBxl@t34&oXo rlrO",
"gilu1Dvy@@OoO19sts#O*A8slliOoo@y991O<VVaOj3@O3VBgtOoXOaVV<i oOixlto@xl",
"Oo@O+aipxlpXo@aytpliO#ytluOpgliOa9At49-O@itO#94.Xplli$#&9AOXX;BVjO+3VV",
"OpppOOt$yVVvo@utOOipopllppgujBBjus;O++OoO OO t XitkVBs$f*9#@j49;@#nZ3a",
"ppNVbitlpdZZviupgipskBN%Oxio+bZbuuOOippOupiiOoip%@aB9v+xpsi#0evi@vSBt@",
"xisVwdul@osZS#dNNcidwBaXX@OXo+dh%O@kNVgOtcBNsXixiitys#otpu@O0;yp@#:&og",
"tuuhdsi+XXOv3d39Bs##hdOOO$ti@ooOO%i9wv%$ry;w4a ip@@o@@otppoXsyli@u$+ot",
"oippO$#o%@OO%09<ttt$$@tudmCl@OOOtx@;;O@yrO#b90Oo@u@otgtxNc*XOkl#rlCv&X",
"oicCsoo$zCc&#83#X$xmcsysVZnatiigxyXoOOOutr@ <5i#cCx%@ppi399t@j XOaB94#",
"Xo;49j#us344OOii@ t39Ba99B+plpylpOourXOscxioOusV93su@O#tiB99+OOO@ts399",
"oXX;9wvuOO33oOlcl#oa3<+73+Xi@oOO@@@@o b9Zdotl@843+Oylcxg%t3Aapcxhi@@8S",
"oo Oje3Oo@OOo18VtoooOOooX%ti@%it443 X<99jO$xp#A4+ood9ZjoOty<s@k9ZjXo+4",
"xx@O#y+#xllttB9s@tu#oXXX@tlxxiOoa343+79jt%igo@4stgOd9jXOgOOOo@tk9joutt",
"4V3+XoaBVNy@oO+plpillgX%ybVVdOXoot8S 1sO@t$ootitl@OOtiipoOgll@pl+#@ito",
"+3w#X*49Byllooo%lyoaVVbtuB9;O$ggyo.9iatO%xlftllOOiglpu@OObBV%ixtOillgo",
"Ossio>ANs%%xoiplttpia9ZvOcaoanBb@OpcliO-BVz@ixOooumVBsX b9Zh%ltXaNBbOO",
"OO@t@>3%OOXOjNNsoogl@d9A+OXaBZn#OOpNNbOjZn+XO@ipgtsB93aaA8htO#o&n9Baip",
" upppstO@O@-99bOoo$p%Ode @o,eba$ Ouj99at-tOO@-NNa@Ot<e1Onhggioo,en&%bp",
"OucNkyOOpi#ewvyOo@igp@Od%xO18aiiOupps; O@iyik99b@OXX#<:Otjbmg%@j3ao#s@",
"tos49b##xl qv%@yO$zmmstoklOsa@i%jMMpoO@@ilgse4k@%t@oOOOotZ9n%i%#u@O#tp",
"@oX;4w;@lgOkoOipOX#nZB#o;@@u@Ood99<oO@ipuyu 6;OXtppOXylO+vvoiOo%pitlcc",
"oOOOje,o@lyrOpcMtOX#VvoOoOOy@Oj94b$OOgxcsooOOO@@pxcaO$ll@OOOoOsMxg%OVZ",
"yOO@uj-OupgOXXj49j@it#og@gxcgy;q>oolitv89;uxpollOvZZj@tg+xxxiBZVa@g@iV",
"lxptiOOtplOOooo;9jpxgOoOl@<49jy@ooolxiOj4;@l@olOoovZvpi#443itnZaX#xltt",
"B4VsOX%xxpOllxO O#pg%llliuOk99;oOgoOlOOopioOOtit%tt#ti&444#O$if+XOtplO",
"t49aos4VvOXOBV3s@OoaBVNOtOXo;q8OxlX%i$OOOoXOllluOgxi@X*A3 Ooo@ypllpixl",
"ots#-49<OOOy#493so*69Vs@OXXOiharlO@oullgtX#BBBpyoOpNs@s4tpuppl@OjVVk@x",
"Xo@u3e<OO@uxstBA<@jeBs%Oipg%ilp@OglgOOvVba*SBt@pgoOfy@@iypNBVai@O;9BOO",
"iy@uj<#o@yu%xO#8vttat@#-CVsOOglivNCiou&nZ1--.oOll@%pgy jx#49dopgtijs@t",
"NpOOtpi%@OOX%OXttOOOO@@VZvoOOOfbZVv@O#tfbe1Ot%OpuhNNcutd%oaaoo@lpOO@jN",
"doo#zCc@XX%@u@@ O@tpuOo-doOg$o-eVdOip%iO#53@xxiisV9bspp@oo#@%OOutO#dZ9",
"OoOB0VsOOaMMlplppxCcaXooOOlg+Os9joammx@oo#-@xp@@99n-hccpXammgOXOglhe4v",
"c+odBh@Os94by@pg@a393+ rtxxOO@tttgZZBiti%OOtl%OX23#;wVj@&Z9B#OOilgs6vO",
"3#OOOtthw9<p@Oo@@Ot493oO@liOtxcxitnni@izcxiOiyyOooodVdX+0ZB%gccst@oXOx",
"tlxxt@@s4<#gOxzxpiO&06oX@titOa49nooo%y399huxptlxx$@t%#o.SBtOovZZjXXOty",
"oob9ZaXooOlOBZ9spxpOXOttlxxpgt*49nXXo<44j@tpoOyBZVdtO%ggBtogOOvZ9;Oxlx",
"1O%B9Z-XXXOO4Zst@ixio%i3VV#ixioa0At%o6ehtu@OXOOO3Z8a$xlttoolxiibe8@sVV",
"9zO#bA,Ollpt#yy@OOtp tB49.OOOOoOssuOX #O#yiplpOp#1A-upoOlllO@gpiitt%#9",
"#OXotht@gVBbooppg#oOotA4#ooylgy@$ulpguOoXtNVb@yxgt1dOoOg%BBbOO%pllgXX+",
"iigOtliOij99o-NVs@@yO+9-po-bVz@tybNVyy#Ot193#XOup@a@ooO@O*4w o-NBjOXXX",
"NBgopg@OO@*sd49k@@xgOOapps39NspgtZV-OuuO,D3tXXXiplOoO@ypiO*sOa39b&O@ii",
"ZvOXO%%i%XoO09;r pl@OuXtoB9Ntix# -aooOOo*>sOO@*NCg%O#bNmttOOO4wbs@tkNN",
"boXo#jCc@Ou q3uOo@@oyl@oOjbio+#XXXXuttOooOu@uy99>#i&vZBd%x@ut>>apta99v",
"%$o+n94*OupO;yuu@oXOlMkatti$OOOOOoXgMksOOyg@@OvvotOveBa+xltpi%X#itgbji",
"ix@<9Vaotp#OO@pccsOot399tilxigxcc#Xok4whO%xioO@oOOo1ZaXOputgxcaO@ii%o@",
"cl@50ao#lOlxx+#jZZjtl@37 glittsV9BoXX>99*@pOOiy@gcclf+oo@iuo<99-tzclOX",
"4@OnaX%xgoyV94+@bwvpxlooXoX@i@OtZVtoXXvS>Xo@xxlOXbZZdoo@xxlO@N9sOsZ9no"
};
