/* XPM */
static char *_6e696ae65724f4499b16edde41f7f35o7e2cDgMkG9fCqmE[] = {
/* columns rows colors chars-per-pixel */
"70 70 215 2 ",
"   c None",
".  c #000000",
"X  c #0B0200",
"o  c #0C0A00",
"O  c #0B0B0B",
"+  c #120D00",
"@  c #1A0200",
"#  c #1B1300",
"$  c #1B1903",
"%  c #181919",
"&  c #3E0500",
"*  c #3A0900",
"=  c #3D0A0A",
"-  c #350803",
";  c #211500",
":  c #251C00",
">  c #2A1C00",
",  c #341616",
"<  c #2E0800",
"1  c #2B2400",
"2  c #2D2A00",
"3  c #252300",
"4  c #342400",
"5  c #3A2C00",
"6  c #352A00",
"7  c #3D3200",
"8  c #3D3900",
"9  c #343100",
"0  c #272729",
"q  c #343434",
"w  c #362626",
"e  c #450200",
"r  c #4A0602",
"t  c #590300",
"y  c #4A170E",
"u  c #660403",
"i  c #770503",
"p  c #6E1400",
"a  c #432D00",
"s  c #433500",
"d  c #4C3300",
"f  c #423E00",
"g  c #4A3A00",
"h  c #553900",
"j  c #593B00",
"k  c #7A3600",
"l  c #512D2E",
"z  c #4B4300",
"x  c #4F4A00",
"c  c #464200",
"v  c #524C00",
"b  c #584600",
"n  c #565100",
"m  c #5C5600",
"M  c #654800",
"N  c #645D00",
"B  c #685600",
"V  c #795800",
"C  c #6C6500",
"Z  c #6F6800",
"A  c #756D00",
"S  c #796700",
"D  c #7B7300",
"F  c #7A7307",
"G  c #3F4046",
"H  c #595959",
"J  c #4C4747",
"K  c #695C5D",
"L  c #5F5F63",
"P  c #676767",
"I  c #737374",
"U  c #890300",
"Y  c #980202",
"T  c #941515",
"R  c #A70605",
"E  c #B50000",
"W  c #A91D1D",
"Q  c #9A3A3A",
"!  c #CA0100",
"~  c #D40000",
"^  c #D70500",
"/  c #D41800",
"(  c #CE1400",
")  c #E30000",
"_  c #EB0000",
"`  c #EF0D0D",
"'  c #F20000",
"]  c #FE0000",
"[  c #D92800",
"{  c #D83700",
"}  c #F12323",
"|  c #855A00",
" . c #865500",
".. c #886500",
"X. c #996800",
"o. c #837B00",
"O. c #847B00",
"+. c #9C7500",
"@. c #A26E00",
"#. c #AD6F00",
"$. c #AA7100",
"%. c #A77600",
"&. c #B57900",
"*. c #BA7D00",
"=. c #B37700",
"-. c #D84500",
";. c #E24A00",
":. c #E26700",
">. c #9D6565",
",. c #C95757",
"<. c #D76868",
"1. c #E34242",
"2. c #00AA05",
"3. c #01AD0B",
"4. c #0EB119",
"5. c #04AE10",
"6. c #1BB625",
"7. c #2ABA34",
"8. c #2CBB35",
"9. c #36BF40",
"0. c #3DC146",
"q. c #42C34B",
"w. c #55CA5D",
"e. c #5FCB66",
"r. c #6FD176",
"t. c #8C8300",
"y. c #948800",
"u. c #9B9100",
"i. c #A78600",
"p. c #BA8800",
"a. c #A59A00",
"s. c #A79700",
"d. c #B89600",
"f. c #B5A800",
"g. c #BDB100",
"h. c #C68600",
"j. c #CD8A00",
"k. c #C68900",
"l. c #D48E00",
"z. c #C89500",
"x. c #DC9300",
"c. c #D29500",
"v. c #E19600",
"b. c #E99C00",
"n. c #CCA600",
"m. c #D7A700",
"M. c #C6B900",
"N. c #CABC00",
"B. c #C5B500",
"V. c #D7B900",
"C. c #ECAC00",
"Z. c #EBA500",
"A. c #F2A400",
"S. c #F9A500",
"D. c #FFAB00",
"F. c #F7AC00",
"G. c #E4B500",
"H. c #ECBD00",
"J. c #EAB500",
"K. c #F1B400",
"L. c #FFB500",
"P. c #F4BB00",
"I. c #FEBC00",
"U. c #DBCD00",
"Y. c #D4C600",
"T. c #DFD000",
"R. c #CFC100",
"E. c #E7C700",
"W. c #F3C500",
"Q. c #FFC300",
"!. c #F6CA00",
"~. c #FECC00",
"^. c #E3D400",
"/. c #ECDC00",
"(. c #E7D800",
"). c #FED400",
"_. c #FFDB00",
"`. c #F4D600",
"'. c #F4E400",
"]. c #FFE300",
"[. c #FFEE00",
"{. c #FFF100",
"}. c #84836F",
"|. c #7BD581",
" X c #868686",
".X c #969292",
"XX c #AD9898",
"oX c #A5A5A5",
"OX c #BBBDBD",
"+X c #B1B1B1",
"@X c #B6ACAC",
"#X c #9FA7A7",
"$X c #D2B7B8",
"%X c #8DDB93",
"&X c #83D789",
"*X c #A5E2A9",
"=X c #A4E2A9",
"-X c #B5E7B8",
";X c #AEE5B1",
":X c #BDC3C1",
">X c #C2C2C2",
",X c #CBCCCC",
"<X c #C5C9C8",
"1X c #D5D7D6",
"2X c #D0D1CC",
"3X c #C5ECC8",
"4X c #DAF4DC",
"5X c #D3E9D5",
"6X c #EBEBEB",
"7X c #E3E7E5",
"8X c #EDF8EE",
"9X c #F2F3F3",
"0X c #FFFFFF",
"qX c #F5FBF6",
"wX c #EFF3F3",
/* pixels */
"                                                                                                                                            ",
"                                                                                                                                            ",
"                                                                                    O O O O O O O O O O O O                                 ",
"                                                                              X O q >. X X X X.XOX>X>X>X>X+X0 .                             ",
"                                                                            X U Q .X6X6X6X6X6X6X0X0X0X0X0X0XOX.XJ . .                       ",
"                                                                          @ U ,.$X6X0X0X0X0X0X0X0X0X0X0X0X0X0XwXoXI P O .                   ",
"                                                                        - R ,.$XwX0X0X0X0X0X0X0X0X0X0X0X0X0X0X0X9X7X1XoXI q                 ",
"                                                                        - ` XX7X0X0X0X0X0X0X0X0X0X0X0X3Xr.r.r.5X0X0X0X0X6X+XP . .           ",
"                                                                      e T ,.$X9X0X0X0X0X0X0X0X0X0X0X;Xq.2.2.3.-X0X0X0X0X0X0X2XI H %         ",
"                                                                    . u } @X0X0X0X0X0X0X0X0X0X0X0X0Xw.7.r.r.4.e.%X;X0X0X0X0X0X9XoX%         ",
"                                                                    r T <.,XqX0X0X0X0X0X0X0X0X0X0X0X*X;X0XqX|.6.2.8.*XqX0X0X0X9X>XK 0       ",
"                                                                  X Y 1.OX0X0X0X0X0X0X0X0X0X4X=X*X*X*X*X-X0X0X%X7.2.7.8X0X0X0X0XqXOXq .     ",
"                                                                  e W <.1X0X0X0X0X0X0X0X0X0X3Xq.3.3.3.3.7.*X-X8X&X2.6.=X8X0X0X0X0X,XP 0     ",
"                                                                X ! <.2XwX:XOXOXOXOXOXOXwX0X0X4Xw.q.q.q.9.5.5.&Xe.2.3.4.3X0X0X0X0X0X<XH .   ",
"                                            9 9 7 9 5 5 9 5 5 2 X ! ,.#XoXy = = = = = y .X<X<X<X:X:X7X0X3Xq.9.q.6.3.2.4.3X0X0X0X0X0X,XH .   ",
"                                  . . . o 8 n.W.W.E.W.W.W.W.!.n.a E u - u ) _ ' ' ' ' _ i , = = = = .X1X2X2X8XqX%X8.7.4.3X0X0X0X0X0X,XH .   ",
"                          . . . . . . . 2 U.[.[.[.[.[.[.[.[.[.].H.b U ^ ' ] ] ] ] ] ] ] ' _ _ _ _ _ i , , l $X1X1X5X5Xq.3X0X0X0X0X0X,XH .   ",
"                        . . . . . . . . 2 U.[.[.[.[.[.[.[.[.[.[.[.E.V i ) ) ) ) ' ] ] ] ] ] ] ] ] ] _ ) ) ~ y 0 , K 5X1XqX0X0X0X0X0X,XH .   ",
"                          . . . . . . . . 9 Y.[.[.[.[.[.[.[.[.[.].).H.X.> * - - U _ _ _ _ _ _ ' ] ] ] ] ] ] ) ^ ^ R w l >X9X9X0X0X0XOXH .   ",
"                              . . . . . . o B.[.[.[.[.[.[.[.[.].).L.L.H.V.c.l.l. .* * * * * * t ) ' ' ' ' ] ] ] ] ' ~ ! l w I 9X0X0XP %     ",
"                                  . . . . . 9 d.).!.!.!.!.!.!.W.F.F.~.].[.].~.Q.J.z.k.k.h.h.k.#.y & e * u ' ' ' ] ] ] ] ^ ! T K 6X0XJ .     ",
"                                              9 s s s s s s s s h V.[.[.[.[.].[.].]._.~.Q.~.Q.W.d.p.*.*.X.r e e Y ] ] ] ] ] _ Y H 7XH X     ",
"                                                            . $ a./.[.[.[.[.[.{.[.[.{.].].].].].]._._.).K.=.%.=.k r e t ^ ] ] ' R l % .     ",
"                                                              2 /.{.[.[.[.[.[.[.{.{.[.{.[.{.{.[.{.{.{.[._.).Q.Q.m.i.i.X.p E ] ] ] E - .     ",
"                                                              1 /.[.[.[.[.'.D C N y.[.{.{.[.{.[.[.[.[.[.{.[.].[.d.B ..!.s.k u u i ) t .     ",
"                                                            8 u.'.[.[.{.^.A o . G }.o./.{.[.[.[.[.[.[.[.[.[.[.u.2 0 }.F G.p.d # | p < .     ",
"                                                          . x [.[.[.[.{.M.o . . J L $ ^.{.[.[.[.[.{.[.{.[.[.'.c . 0 I % n.~.+.6 H.t.3 .     ",
"                                                          . v [.[.{.[.{.M.o . . . . $ T.[.[.[.[.[.[.[.[.[.[.[.c . . . . g.[.y.4 K.[.n .     ",
"    d j M j #                                             . v [.[.{.{.{.U.N o . . $ A /.{.[.[.[.[.[.{.{.{.[.[.y.1 . o m T.{.u.4 A.].v .     ",
"  . | D.D.L.S x v v d                                     . v [.[.K.b.P.{./.Z v x o.[.[.[.[.[.[.[.[.M.a.g.[.[.[.a.v Z /.{.{.u.4 A.].n .     ",
"  . | L.Q.[.[.[.[.].C.B c z c a                           . v ].C.[ ^ ;.P.[.{.[.[.[.[.[.[.[.[.[.[.[.t.c A '.[.[.{.[.[.[.[.!...4 S.].n .     ",
"  . | Q.[.[.[.[.[.[.[.[.[.'._.m.x 8 5 a 5                 . g b./ ] ] _ [ K.'.[.[.[.[.[.[.{.{.[.[.[.[.[.[.[.{.[.[.[.[.[.{.:.i 4 A.B.f .     ",
"  . | Q.[.[.[.[.[.[.[.[.[.[.[.[.'.'.W.P.n.s 6 4 >         . e ( ] ] ] ] ' / !.{.[.[.{.[.[.^.U.{.[.Y.N.^.{.[.R./.{.[.[.[.!.;.U y &.1 . .     ",
"  . V C.].[.[.[.[.[.{.[.[.[.[.[.[.[.[.[.].C.H.C.+.1 1 > > o & ! ] ] ] ] ' ( !.{.[.[.[.[.{.t.C U.N.n 9 D U.M.v B.{.[.{.'.-._ ) Y @ . . . .   ",
"    + M L.[.[.[.[.[.[.[.[.[.{.[.[.[.[.[.[.].[.[.'.^.^.C.Z.M e / ' ] ] ] ' ( !.[.[.[.{.[.[.'.a.9 8 B./.u.9 c N.[.[.[.{.].{ ) ' Y X . . . .   ",
"    . d L.~.].[.[.[.[.[.[.[.[.[.[.{.[.[.{.[.[.[.{.[.[.].[.A c C.[ ' ] ' _ [ !.{.[.[.[.[.[.[.'.^.^.[.{.'.U.^.[.{.[.[.[.].-._ ) Y X . . . .   ",
"    . h D.~.).].[.{.[.[.[.[.[.[.[.[.[.[.[.[.[.[.[.[.[.[.{.A x [.W.{ ^ ( { W.[.[.[.[.[.[.[.[.[.[.[.[.[.{.{.[.[.[.[.[.[.[.W.-.U @   . . . .   ",
"    . h F.P.W.W.!.W.W.!.W.`.'.'.[.[.[.[.[.[.[.[.[.[.[.[.{.A x [.[.W.W.P.!.[.[.[.[.{.[.[.[.[.[.[.[.[.[.[.[.[.[.[.[.[.[.[.).V @     . . . .   ",
"        5 7 7 7 7 7 7 7 7 8 8 n H.).!.).!.).!.].'.[.[.[.{.A x [.).Q.~.].'.[.[.[.[.[.[.[.{.[.[.[.[.[.[.[.[.{.[.[.[.[.[.).I.M X       . . .   ",
"                                s s g g g g g c c D '.[.[.A z ).]._.Q.p.c n ^.[.[.[.[.[.[.[.[.[.[.{.[.[.[.[.[.[.[.].).L.).B .               ",
"                                                  3 N /.].S z _.[.{.].V.a.u.N v a.{.[.[.[.[.[.[.[.[.[.[.[.[.{.{.a...L._.[.C .               ",
"                                                  4 @./.).V x [.[.[.{.{.{.[.a.u.D y.[._._._._._.)._._._._._.[.t.D f.).[.[.M.Z               ",
"                                                  8 !.[._.V x [.[.[.[.[.[.[.{.{.D f '.].Q.L.L.L.L.L.L.L.Q.!.o.D N.{.{.[.{.{.u..             ",
"                                                d %.[._.u.V i.[.{.[.[.[.[.[.{.{.M.D t.'._.L.D.D.D.D.D.L._.(.3 f.{.{.[.[.[.{.u..             ",
"                                              . B ).].!.7  .Q.[.[.[.[.[.[.[.{.[.{.U.D t.T._.~.Q.~.~.Q._.^.t.D Y.{.[.[.[.[.{.u..             ",
"                                              d s.{.[.!.s | ~.[.[.[.[.[.[.[.[.[.[.{.^.$ g.{.{.[.[.{.{.{.B.$ U.{.[.[.[.[.[.{.u..             ",
"                                            h z._.[.[.~.s S _.[.{.{.[.[.{.[.[.[.[.[./.Z y.Y.{.[.[.[.{.U.t.Z /.[.[.[.[.[.[.{.u..             ",
"                                          o j.).[.[._.d.M i._.'.g./.{.[.[.[.[.[.[.[.[.'.8 t.{.{.[.[.{.t.8 '.[.[.{.[.{.[.[.{.u..             ",
"                                          d m._.[.].G.1 =.I._.^.b s.^.{.[.[.[.[.[.[.[.[.8 t.{.[.[.[.{.t.8 '.{.[.[.[.[.[.[.{.u..             ",
"                                        M C._.]._.~.G.: &.I.).].C.5 u.{.[.[.[.[.[.[.[.'.C O.U.[.[.{.{.t.8 '.{.[.[.[.[.[.{.^.D .             ",
"                                    . j S.Q.~.~.~.~.G.: &.Q.).[.'.n t.(.{.[.[.[.[.[.[.[.'.Z N [.[.[.(.t.m '.[.{.[.[.[.[.^.S $ .             ",
"                                      j x.x.x.K.~.~.G.3 &.Q._.[.[./.A S ^.[.[.[.[.[.[.[.{.C v [.[.[.N C '.[.[.[.[.[.{.'.c ..@.;             ",
"                                        # ; # @.b.b.j.; d._.[.[.[.{.W.X.n ^.[.[.[.[.{.[.{.Z v [.{.[.C C /.[.[.[.[.[.[.U.g +.Q.&.o           ",
"                                              ; : ; ; o d._.{.[.[.[.[.W.&.z N.[.[.[.[.[./.Z N [.[.[./.t.n '.[.[.[.[.R.c d.`.].n.:           ",
"                                                      + d.].[.[.[.[.[.[.!.k.x f.[.[.[./.N ..G.[.[.[.{.y.8 /.{.[.[.f.b h.P.].[.'.N.1         ",
"                                                    # &.K._.[.[.[.[.[.[.[._.c.M t.[.^.v @.Z.).[.[.[.{./.a.n U.[.y.M j.Q.].[.[.[./.2         ",
"                                                    # v.Q.)._.[.[.[.[.[.{.[.].c.| c v =.K._.[.[.[.[.[.{./.f.n f S c.~.].[.[.[.{./.2         ",
"                                                    # x.Q.~.).[.[.[.[.[.[.[.{.].V.i.d.L._.[.[.[.[.[.[.[.{.[.d.i.m.~.].[.[.[.[.[./.2         ",
"                                                    # v.Q.~.)._.[.[.[.[.{.[.{.[.[.].].].[.[.[.[.[.{.[.[.[.[.[.].].].[.[.[.[.[.[.E.1         ",
"                                                    # x.L.Q.~.~._._.].[.[.[.[.[.[.[.{.[.[.[.[.[.[.[.[.[.[.[.[.[.{.[.{.[.[.[.{.].H.1         ",
"                                                    ; x.D.D.Q.).~.~.)._._._.[.{.[.[.[.[.[.[.[.[.[.[.[.[.[.[.[.[.[.[.[.[.[.[.{.[.H.1         ",
"                                                    # v.D.D.D.L.L.~.~.~.~.~._._._._.].[.[.{.[.[.[.{.{.[.{.[.[.{.{.[.{.{.{.[.[.).K.>         ",
"                                                    # | v.D.D.D.D.I.I.I.I.Q.~.~.~.~.)._.]._._.].]._.]._._.]._.]._.].]._._.].).C...>         ",
"                                                      X V l.D.D.D.D.D.D.D.D.I.Q.Q.Q.Q.Q.Q.Q.Q.Q.Q.Q.Q.Q.Q.I.Q.Q.I.Q.~.~.~.~.m. .o           ",
"                                                          M h.D.D.D.D.D.D.S.&.@.$.@.$.$.$.$.$.$.$.$.$.@.h.D.D.D.D.D.Q.Q.Q.c.V .             ",
"                                                            d =.=.=.v.D.A.$.> X X . X . . . . . X . . . 4 *.S.D.D.D.A.*.&.b                 ",
"                                                              + 5 a =.b.@.+                               ; $.A.D.D.v.h a >                 ",
"                                                              : v.S.D.@.X                                   + X.j.x.D.S.S.| >               ",
"                                                              > h.l.x.| .                                     + + h l.l.l.j.| .             ",
"                                                                # # # +                                             # # # # #               "
};
